<svg width="633" height="146" viewBox="0 0 633 146" fill="none" xmlns="http://www.w3.org/2000/svg">
<mask id="path-1-outside-1_1_27" maskUnits="userSpaceOnUse" x="42" y="13" width="548" height="121" fill="black">
<rect fill="white" x="42" y="13" width="548" height="121"/>
<path d="M66.8395 108H46.3849L69.4304 38.1818H95.3395L118.385 108H97.9304L82.6577 57.4091H82.1122L66.8395 108ZM63.0213 80.4545H101.476V94.6364H63.0213V80.4545ZM114.388 53.4545V38.1818H175.07V53.4545H154.07V108H135.388V53.4545H114.388ZM182.203 108V38.1818H212.339C217.521 38.1818 222.055 39.125 225.942 41.0114C229.828 42.8977 232.851 45.6136 235.01 49.1591C237.169 52.7045 238.249 56.9545 238.249 61.9091C238.249 66.9091 237.135 71.125 234.908 74.5568C232.703 77.9886 229.601 80.5795 225.601 82.3295C221.624 84.0795 216.976 84.9545 211.658 84.9545H193.658V70.2273H207.839C210.067 70.2273 211.964 69.9545 213.533 69.4091C215.124 68.8409 216.339 67.9432 217.18 66.7159C218.044 65.4886 218.476 63.8864 218.476 61.9091C218.476 59.9091 218.044 58.2841 217.18 57.0341C216.339 55.7614 215.124 54.8295 213.533 54.2386C211.964 53.625 210.067 53.3182 207.839 53.3182H201.158V108H182.203ZM223.112 75.9545L240.567 108H219.976L202.93 75.9545H223.112ZM264.464 108H244.01L267.055 38.1818H292.964L316.01 108H295.555L280.283 57.4091H279.737L264.464 108ZM260.646 80.4545H299.101V94.6364H260.646V80.4545ZM384.635 64.3636H365.408C365.271 62.7727 364.908 61.3295 364.317 60.0341C363.749 58.7386 362.953 57.625 361.93 56.6932C360.93 55.7386 359.714 55.0114 358.283 54.5114C356.851 53.9886 355.226 53.7273 353.408 53.7273C350.226 53.7273 347.533 54.5 345.328 56.0455C343.146 57.5909 341.487 59.8068 340.351 62.6932C339.237 65.5795 338.68 69.0455 338.68 73.0909C338.68 77.3636 339.249 80.9432 340.385 83.8295C341.544 86.6932 343.214 88.8523 345.396 90.3068C347.578 91.7386 350.203 92.4545 353.271 92.4545C355.021 92.4545 356.589 92.2386 357.976 91.8068C359.362 91.3523 360.567 90.7045 361.589 89.8636C362.612 89.0227 363.442 88.0114 364.078 86.8295C364.737 85.625 365.18 84.2727 365.408 82.7727L384.635 82.9091C384.408 85.8636 383.578 88.875 382.146 91.9432C380.714 94.9886 378.68 97.8068 376.044 100.398C373.43 102.966 370.192 105.034 366.328 106.602C362.464 108.17 357.976 108.955 352.862 108.955C346.453 108.955 340.703 107.58 335.612 104.83C330.544 102.08 326.533 98.0341 323.578 92.6932C320.646 87.3523 319.18 80.8182 319.18 73.0909C319.18 65.3182 320.68 58.7727 323.68 53.4545C326.68 48.1136 330.726 44.0795 335.817 41.3523C340.908 38.6023 346.589 37.2273 352.862 37.2273C357.271 37.2273 361.328 37.8295 365.033 39.0341C368.737 40.2386 371.987 42 374.783 44.3182C377.578 46.6136 379.828 49.4432 381.533 52.8068C383.237 56.1705 384.271 60.0227 384.635 64.3636ZM349.18 107.455H355.862L355.317 110.591C358.021 111 360.124 111.955 361.624 113.455C363.124 114.955 363.885 116.818 363.908 119.045C363.953 122.727 362.146 125.625 358.487 127.739C354.851 129.852 349.839 130.909 343.453 130.909V123.682C346.817 123.682 349.385 123.318 351.158 122.591C352.93 121.886 353.862 120.841 353.953 119.455C354.044 118.182 353.544 117.125 352.453 116.284C351.385 115.466 349.749 114.886 347.544 114.545L349.18 107.455ZM460.871 73.0909C460.871 80.8636 459.359 87.4205 456.337 92.7614C453.314 98.0795 449.234 102.114 444.098 104.864C438.962 107.591 433.234 108.955 426.916 108.955C420.553 108.955 414.803 107.58 409.666 104.83C404.553 102.057 400.484 98.0114 397.462 92.6932C394.462 87.3523 392.962 80.8182 392.962 73.0909C392.962 65.3182 394.462 58.7727 397.462 53.4545C400.484 48.1136 404.553 44.0795 409.666 41.3523C414.803 38.6023 420.553 37.2273 426.916 37.2273C433.234 37.2273 438.962 38.6023 444.098 41.3523C449.234 44.0795 453.314 48.1136 456.337 53.4545C459.359 58.7727 460.871 65.3182 460.871 73.0909ZM441.371 73.0909C441.371 68.9091 440.814 65.3864 439.7 62.5227C438.609 59.6364 436.984 57.4545 434.825 55.9773C432.689 54.4773 430.053 53.7273 426.916 53.7273C423.78 53.7273 421.132 54.4773 418.973 55.9773C416.837 57.4545 415.212 59.6364 414.098 62.5227C413.007 65.3864 412.462 68.9091 412.462 73.0909C412.462 77.2727 413.007 80.8068 414.098 83.6932C415.212 86.5568 416.837 88.7386 418.973 90.2386C421.132 91.7159 423.78 92.4545 426.916 92.4545C430.053 92.4545 432.689 91.7159 434.825 90.2386C436.984 88.7386 438.609 86.5568 439.7 83.6932C440.814 80.8068 441.371 77.2727 441.371 73.0909ZM417.643 31.3636H408.371C408.371 26.4545 409.496 22.8068 411.746 20.4205C413.996 18.0114 416.734 16.7955 419.962 16.7727C421.734 16.7727 423.234 17.0568 424.462 17.625C425.712 18.1705 426.803 18.8182 427.734 19.5682C428.666 20.3182 429.507 20.9773 430.257 21.5455C431.03 22.0909 431.825 22.3636 432.643 22.3636C433.962 22.3409 434.893 21.8636 435.439 20.9318C436.007 20 436.303 18.7045 436.325 17.0455H445.462C445.393 21.8636 444.234 25.5114 441.984 27.9886C439.757 30.4659 437.053 31.7273 433.871 31.7727C432.098 31.7955 430.587 31.5227 429.337 30.9545C428.109 30.3864 427.041 29.7386 426.132 29.0114C425.246 28.2614 424.416 27.6023 423.643 27.0341C422.871 26.4659 422.053 26.1818 421.189 26.1818C420.098 26.1818 419.234 26.625 418.598 27.5114C417.962 28.375 417.643 29.6591 417.643 31.3636ZM469.641 108V38.1818H519.959V53.4545H488.595V65.4545H517.368V80.7273H488.595V92.7273H519.822V108H469.641ZM566.996 60C566.814 57.7273 565.962 55.9545 564.439 54.6818C562.939 53.4091 560.655 52.7727 557.587 52.7727C555.632 52.7727 554.03 53.0114 552.78 53.4886C551.553 53.9432 550.643 54.5682 550.053 55.3636C549.462 56.1591 549.155 57.0682 549.132 58.0909C549.087 58.9318 549.234 59.6932 549.575 60.375C549.939 61.0341 550.507 61.6364 551.28 62.1818C552.053 62.7045 553.041 63.1818 554.246 63.6136C555.45 64.0455 556.882 64.4318 558.541 64.7727L564.268 66C568.132 66.8182 571.439 67.8977 574.189 69.2386C576.939 70.5795 579.189 72.1591 580.939 73.9773C582.689 75.7727 583.973 77.7955 584.791 80.0455C585.632 82.2955 586.064 84.75 586.087 87.4091C586.064 92 584.916 95.8864 582.643 99.0682C580.371 102.25 577.121 104.67 572.893 106.33C568.689 107.989 563.632 108.818 557.723 108.818C551.655 108.818 546.359 107.92 541.837 106.125C537.337 104.33 533.837 101.568 531.337 97.8409C528.859 94.0909 527.609 89.2955 527.587 83.4545H545.587C545.7 85.5909 546.234 87.3864 547.189 88.8409C548.143 90.2955 549.484 91.3977 551.212 92.1477C552.962 92.8977 555.041 93.2727 557.45 93.2727C559.473 93.2727 561.166 93.0227 562.53 92.5227C563.893 92.0227 564.928 91.3295 565.632 90.4432C566.337 89.5568 566.7 88.5455 566.723 87.4091C566.7 86.3409 566.348 85.4091 565.666 84.6136C565.007 83.7955 563.916 83.0682 562.393 82.4318C560.871 81.7727 558.814 81.1591 556.223 80.5909L549.268 79.0909C543.087 77.75 538.212 75.5114 534.643 72.375C531.098 69.2159 529.337 64.9091 529.359 59.4545C529.337 55.0227 530.518 51.1477 532.905 47.8295C535.314 44.4886 538.643 41.8864 542.893 40.0227C547.166 38.1591 552.064 37.2273 557.587 37.2273C563.223 37.2273 568.098 38.1705 572.212 40.0568C576.325 41.9432 579.496 44.6023 581.723 48.0341C583.973 51.4432 585.109 55.4318 585.132 60H566.996Z"/>
</mask>
<path d="M66.8395 108V111H69.0676L69.7115 108.867L66.8395 108ZM46.3849 108L43.5361 107.06L42.2355 111H46.3849V108ZM69.4304 38.1818V35.1818H67.2614L66.5816 37.2415L69.4304 38.1818ZM95.3395 38.1818L98.1883 37.2415L97.5085 35.1818H95.3395V38.1818ZM118.385 108V111H122.534L121.234 107.06L118.385 108ZM97.9304 108L95.0584 108.867L95.7023 111H97.9304V108ZM82.6577 57.4091L85.5297 56.5421L84.8857 54.4091H82.6577V57.4091ZM82.1122 57.4091V54.4091H79.8842L79.2402 56.5421L82.1122 57.4091ZM63.0213 80.4545V77.4545H60.0213V80.4545H63.0213ZM101.476 80.4545H104.476V77.4545H101.476V80.4545ZM101.476 94.6364V97.6364H104.476V94.6364H101.476ZM63.0213 94.6364H60.0213V97.6364H63.0213V94.6364ZM66.8395 105H46.3849V111H66.8395V105ZM49.2338 108.94L72.2792 39.1221L66.5816 37.2415L43.5361 107.06L49.2338 108.94ZM69.4304 41.1818H95.3395V35.1818H69.4304V41.1818ZM92.4907 39.1221L115.536 108.94L121.234 107.06L98.1883 37.2415L92.4907 39.1221ZM118.385 105H97.9304V111H118.385V105ZM100.802 107.133L85.5297 56.5421L79.7857 58.2761L95.0584 108.867L100.802 107.133ZM82.6577 54.4091H82.1122V60.4091H82.6577V54.4091ZM79.2402 56.5421L63.9675 107.133L69.7115 108.867L84.9842 58.2761L79.2402 56.5421ZM63.0213 83.4545H101.476V77.4545H63.0213V83.4545ZM98.4759 80.4545V94.6364H104.476V80.4545H98.4759ZM101.476 91.6364H63.0213V97.6364H101.476V91.6364ZM66.0213 94.6364V80.4545H60.0213V94.6364H66.0213ZM114.388 53.4545H111.388V56.4545H114.388V53.4545ZM114.388 38.1818V35.1818H111.388V38.1818H114.388ZM175.07 38.1818H178.07V35.1818H175.07V38.1818ZM175.07 53.4545V56.4545H178.07V53.4545H175.07ZM154.07 53.4545V50.4545H151.07V53.4545H154.07ZM154.07 108V111H157.07V108H154.07ZM135.388 108H132.388V111H135.388V108ZM135.388 53.4545H138.388V50.4545H135.388V53.4545ZM117.388 53.4545V38.1818H111.388V53.4545H117.388ZM114.388 41.1818H175.07V35.1818H114.388V41.1818ZM172.07 38.1818V53.4545H178.07V38.1818H172.07ZM175.07 50.4545H154.07V56.4545H175.07V50.4545ZM151.07 53.4545V108H157.07V53.4545H151.07ZM154.07 105H135.388V111H154.07V105ZM138.388 108V53.4545H132.388V108H138.388ZM135.388 50.4545H114.388V56.4545H135.388V50.4545ZM182.203 108H179.203V111H182.203V108ZM182.203 38.1818V35.1818H179.203V38.1818H182.203ZM235.01 49.1591L237.572 47.5987L237.572 47.5987L235.01 49.1591ZM234.908 74.5568L232.391 72.9236L232.384 72.9354L234.908 74.5568ZM225.601 82.3295L224.398 79.5811L224.393 79.5836L225.601 82.3295ZM193.658 84.9545H190.658V87.9545H193.658V84.9545ZM193.658 70.2273V67.2273H190.658V70.2273H193.658ZM213.533 69.4091L214.518 72.2426L214.53 72.2385L214.542 72.2343L213.533 69.4091ZM217.18 66.7159L214.727 64.9894L214.716 65.0048L214.706 65.0202L217.18 66.7159ZM217.18 57.0341L214.677 58.6879L214.695 58.7138L214.712 58.7394L217.18 57.0341ZM213.533 54.2386L212.439 57.0324L212.464 57.0418L212.488 57.0509L213.533 54.2386ZM201.158 53.3182V50.3182H198.158V53.3182H201.158ZM201.158 108V111H204.158V108H201.158ZM223.112 75.9545L225.747 74.5196L224.894 72.9545H223.112V75.9545ZM240.567 108V111H245.617L243.201 106.565L240.567 108ZM219.976 108L217.327 109.409L218.174 111H219.976V108ZM202.93 75.9545V72.9545H197.937L200.282 77.3634L202.93 75.9545ZM185.203 108V38.1818H179.203V108H185.203ZM182.203 41.1818H212.339V35.1818H182.203V41.1818ZM212.339 41.1818C217.157 41.1818 221.227 42.0577 224.632 43.7102L227.252 38.3125C222.884 36.1923 217.886 35.1818 212.339 35.1818V41.1818ZM224.632 43.7102C228.022 45.3559 230.601 47.6865 232.448 50.7195L237.572 47.5987C235.101 43.5408 231.634 40.4395 227.252 38.3125L224.632 43.7102ZM232.448 50.7195C234.269 53.7109 235.249 57.3976 235.249 61.9091H241.249C241.249 56.5114 240.069 51.6982 237.572 47.5987L232.448 50.7195ZM235.249 61.9091C235.249 66.459 234.239 70.0764 232.391 72.9236L237.424 76.19C240.031 72.1736 241.249 67.3592 241.249 61.9091H235.249ZM232.384 72.9354C230.522 75.8339 227.896 78.0507 224.398 79.5811L226.803 85.078C231.305 83.1084 234.885 80.1434 237.432 76.1782L232.384 72.9354ZM224.393 79.5836C220.871 81.133 216.651 81.9545 211.658 81.9545V87.9545C217.301 87.9545 222.376 87.0261 226.809 85.0755L224.393 79.5836ZM211.658 81.9545H193.658V87.9545H211.658V81.9545ZM196.658 84.9545V70.2273H190.658V84.9545H196.658ZM193.658 73.2273H207.839V67.2273H193.658V73.2273ZM207.839 73.2273C210.295 73.2273 212.546 72.9287 214.518 72.2426L212.547 66.5756C211.383 66.9804 209.838 67.2273 207.839 67.2273V73.2273ZM214.542 72.2343C216.644 71.4835 218.41 70.2295 219.655 68.4116L214.706 65.0202C214.269 65.6568 213.603 66.1983 212.524 66.5839L214.542 72.2343ZM219.634 68.4424C220.951 66.5711 221.476 64.3101 221.476 61.9091H215.476C215.476 63.4626 215.137 64.4061 214.727 64.9894L219.634 68.4424ZM221.476 61.9091C221.476 59.4903 220.953 57.2167 219.649 55.3288L214.712 58.7394C215.135 59.3515 215.476 60.3279 215.476 61.9091H221.476ZM219.683 55.3803C218.452 53.517 216.694 52.2128 214.577 51.4264L212.488 57.0509C213.553 57.4463 214.227 58.0057 214.677 58.6879L219.683 55.3803ZM214.626 51.4449C212.617 50.6588 210.327 50.3182 207.839 50.3182V56.3182C209.807 56.3182 211.312 56.5912 212.439 57.0324L214.626 51.4449ZM207.839 50.3182H201.158V56.3182H207.839V50.3182ZM198.158 53.3182V108H204.158V53.3182H198.158ZM201.158 105H182.203V111H201.158V105ZM220.478 77.3895L237.932 109.435L243.201 106.565L225.747 74.5196L220.478 77.3895ZM240.567 105H219.976V111H240.567V105ZM222.624 106.591L205.579 74.5457L200.282 77.3634L217.327 109.409L222.624 106.591ZM202.93 78.9545H223.112V72.9545H202.93V78.9545ZM264.464 108V111H266.693L267.336 108.867L264.464 108ZM244.01 108L241.161 107.06L239.861 111H244.01V108ZM267.055 38.1818V35.1818H264.886L264.207 37.2415L267.055 38.1818ZM292.964 38.1818L295.813 37.2415L295.133 35.1818H292.964V38.1818ZM316.01 108V111H320.159L318.859 107.06L316.01 108ZM295.555 108L292.683 108.867L293.327 111H295.555V108ZM280.283 57.4091L283.155 56.5421L282.511 54.4091H280.283V57.4091ZM279.737 57.4091V54.4091H277.509L276.865 56.5421L279.737 57.4091ZM260.646 80.4545V77.4545H257.646V80.4545H260.646ZM299.101 80.4545H302.101V77.4545H299.101V80.4545ZM299.101 94.6364V97.6364H302.101V94.6364H299.101ZM260.646 94.6364H257.646V97.6364H260.646V94.6364ZM264.464 105H244.01V111H264.464V105ZM246.859 108.94L269.904 39.1221L264.207 37.2415L241.161 107.06L246.859 108.94ZM267.055 41.1818H292.964V35.1818H267.055V41.1818ZM290.116 39.1221L313.161 108.94L318.859 107.06L295.813 37.2415L290.116 39.1221ZM316.01 105H295.555V111H316.01V105ZM298.427 107.133L283.155 56.5421L277.411 58.2761L292.683 108.867L298.427 107.133ZM280.283 54.4091H279.737V60.4091H280.283V54.4091ZM276.865 56.5421L261.593 107.133L267.336 108.867L282.609 58.2761L276.865 56.5421ZM260.646 83.4545H299.101V77.4545H260.646V83.4545ZM296.101 80.4545V94.6364H302.101V80.4545H296.101ZM299.101 91.6364H260.646V97.6364H299.101V91.6364ZM263.646 94.6364V80.4545H257.646V94.6364H263.646ZM384.635 64.3636V67.3636H387.897L387.624 64.1132L384.635 64.3636ZM365.408 64.3636L362.419 64.6198L362.654 67.3636H365.408V64.3636ZM364.317 60.0341L361.569 61.2391L361.578 61.2592L361.587 61.2791L364.317 60.0341ZM361.93 56.6932L359.859 58.8632L359.884 58.8873L359.91 58.9108L361.93 56.6932ZM358.283 54.5114L357.254 57.3294L357.274 57.3367L357.294 57.3436L358.283 54.5114ZM345.328 56.0455L343.606 53.5889L343.6 53.5931L343.594 53.5974L345.328 56.0455ZM340.351 62.6932L337.559 61.5942L337.556 61.6037L337.552 61.6133L340.351 62.6932ZM340.385 83.8295L337.593 84.9285L337.599 84.9419L337.604 84.9551L340.385 83.8295ZM345.396 90.3068L343.732 92.803L343.741 92.809L343.75 92.815L345.396 90.3068ZM357.976 91.8068L358.868 94.6711L358.889 94.6645L358.911 94.6575L357.976 91.8068ZM361.589 89.8636L363.495 92.1809L363.495 92.1809L361.589 89.8636ZM364.078 86.8295L361.446 85.3895L361.441 85.3984L361.437 85.4072L364.078 86.8295ZM365.408 82.7727L365.429 79.7728L362.831 79.7544L362.442 82.3233L365.408 82.7727ZM384.635 82.9091L387.626 83.1392L387.873 79.932L384.656 79.9092L384.635 82.9091ZM382.146 91.9432L384.861 93.2196L384.865 93.2118L382.146 91.9432ZM376.044 100.398L378.147 102.538L378.147 102.537L376.044 100.398ZM335.612 104.83L334.181 107.466L334.186 107.469L335.612 104.83ZM323.578 92.6932L320.948 94.1368L320.953 94.1454L323.578 92.6932ZM323.68 53.4545L326.293 54.9285L326.296 54.9237L323.68 53.4545ZM335.817 41.3523L337.233 43.9967L337.243 43.9918L335.817 41.3523ZM365.033 39.0341L365.96 36.1811L365.96 36.1811L365.033 39.0341ZM374.783 44.3182L372.868 46.6275L372.873 46.6321L372.879 46.6367L374.783 44.3182ZM381.533 52.8068L378.857 54.1629L378.857 54.1629L381.533 52.8068ZM349.18 107.455V104.455H346.794L346.257 106.78L349.18 107.455ZM355.862 107.455L358.818 107.969L359.429 104.455H355.862V107.455ZM355.317 110.591L352.361 110.077L351.836 113.098L354.868 113.557L355.317 110.591ZM361.624 113.455L363.745 111.333L363.745 111.333L361.624 113.455ZM363.908 119.045L360.908 119.076L360.908 119.082L363.908 119.045ZM358.487 127.739L356.987 125.141L356.98 125.145L358.487 127.739ZM343.453 130.909H340.453V133.909H343.453V130.909ZM343.453 123.682V120.682H340.453V123.682H343.453ZM351.158 122.591L350.05 119.803L350.034 119.809L350.019 119.815L351.158 122.591ZM353.953 119.455L350.961 119.241L350.96 119.25L350.96 119.258L353.953 119.455ZM352.453 116.284L354.285 113.908L354.277 113.902L352.453 116.284ZM347.544 114.545L344.621 113.871L343.895 117.017L347.086 117.51L347.544 114.545ZM384.635 61.3636H365.408V67.3636H384.635V61.3636ZM368.397 64.1074C368.235 62.2157 367.796 60.4324 367.046 58.7891L361.587 61.2791C362.02 62.2267 362.308 63.3298 362.419 64.6198L368.397 64.1074ZM367.064 58.8291C366.331 57.1578 365.291 55.6968 363.951 54.4756L359.91 58.9108C360.615 59.5532 361.166 60.3195 361.569 61.2391L367.064 58.8291ZM364.002 54.5231C362.663 53.2455 361.068 52.3063 359.272 51.6791L357.294 57.3436C358.361 57.7164 359.197 58.2317 359.859 58.8632L364.002 54.5231ZM359.311 51.6933C357.493 51.0295 355.511 50.7273 353.408 50.7273V56.7273C354.941 56.7273 356.208 56.9478 357.254 57.3294L359.311 51.6933ZM353.408 50.7273C349.725 50.7273 346.402 51.6291 343.606 53.5889L347.05 58.502C348.664 57.3709 350.727 56.7273 353.408 56.7273V50.7273ZM343.594 53.5974C340.864 55.5315 338.874 58.2539 337.559 61.5942L343.142 63.7922C344.1 61.3598 345.429 59.6504 347.062 58.4935L343.594 53.5974ZM337.552 61.6133C336.271 64.9321 335.68 68.7839 335.68 73.0909H341.68C341.68 69.307 342.203 66.227 343.15 63.7731L337.552 61.6133ZM335.68 73.0909C335.68 77.6075 336.278 81.5871 337.593 84.9285L343.176 82.7305C342.219 80.2992 341.68 77.1198 341.68 73.0909H335.68ZM337.604 84.9551C338.948 88.2756 340.965 90.958 343.732 92.803L347.06 87.8107C345.464 86.7466 344.14 85.1108 343.166 82.704L337.604 84.9551ZM343.75 92.815C346.502 94.6207 349.723 95.4545 353.271 95.4545V89.4545C350.683 89.4545 348.654 88.8566 347.042 87.7987L343.75 92.815ZM353.271 95.4545C355.264 95.4545 357.141 95.2091 358.868 94.6711L357.084 88.9425C356.038 89.2682 354.779 89.4545 353.271 89.4545V95.4545ZM358.911 94.6575C360.615 94.0988 362.157 93.2813 363.495 92.1809L359.684 87.5464C358.977 88.1278 358.11 88.6058 357.041 88.9561L358.911 94.6575ZM363.495 92.1809C364.823 91.0889 365.901 89.7721 366.72 88.2518L361.437 85.4072C360.983 86.2506 360.401 86.9566 359.684 87.5464L363.495 92.1809ZM366.71 88.2696C367.554 86.7263 368.099 85.0331 368.374 83.2221L362.442 82.3233C362.261 83.5124 361.92 84.5237 361.446 85.3895L366.71 88.2696ZM365.386 85.7727L384.614 85.909L384.656 79.9092L365.429 79.7728L365.386 85.7727ZM381.644 82.679C381.448 85.2263 380.728 87.8872 379.428 90.6745L384.865 93.2118C386.428 89.8628 387.368 86.5009 387.626 83.1392L381.644 82.679ZM379.431 90.6668C378.165 93.3603 376.349 95.8918 373.941 98.258L378.147 102.537C381.012 99.7218 383.264 96.617 384.861 93.2196L379.431 90.6668ZM373.941 98.2579C371.644 100.516 368.75 102.382 365.2 103.823L367.456 109.382C371.634 107.687 375.217 105.416 378.147 102.538L373.941 98.2579ZM365.2 103.823C361.766 105.216 357.674 105.955 352.862 105.955V111.955C358.278 111.955 363.163 111.125 367.456 109.382L365.2 103.823ZM352.862 105.955C346.896 105.955 341.645 104.679 337.038 102.19L334.186 107.469C339.761 110.48 346.01 111.955 352.862 111.955V105.955ZM337.043 102.193C332.508 99.7319 328.898 96.1119 326.203 91.241L320.953 94.1454C324.168 99.9563 328.58 104.427 334.181 107.466L337.043 102.193ZM326.208 91.2496C323.576 86.4543 322.18 80.4461 322.18 73.0909H316.18C316.18 81.1903 317.717 88.2502 320.948 94.1368L326.208 91.2496ZM322.18 73.0909C322.18 65.6964 323.607 59.6902 326.293 54.9285L321.067 51.9806C317.754 57.8553 316.18 64.9399 316.18 73.0909H322.18ZM326.296 54.9237C329.034 50.0491 332.677 46.4377 337.233 43.9967L334.4 38.7078C328.775 41.7214 324.327 46.1782 321.065 51.9853L326.296 54.9237ZM337.243 43.9918C341.859 41.498 347.044 40.2273 352.862 40.2273V34.2273C346.135 34.2273 339.956 35.7066 334.391 38.7128L337.243 43.9918ZM352.862 40.2273C356.997 40.2273 360.737 40.7918 364.105 41.8871L365.96 36.1811C361.92 34.8673 357.545 34.2273 352.862 34.2273V40.2273ZM364.105 41.8871C367.475 42.983 370.385 44.5684 372.868 46.6275L376.698 42.0089C373.59 39.4316 369.999 37.4943 365.96 36.1811L364.105 41.8871ZM372.879 46.6367C375.339 48.6571 377.332 51.154 378.857 54.1629L384.209 51.4507C382.324 47.7324 379.817 44.5702 376.686 41.9997L372.879 46.6367ZM378.857 54.1629C380.361 57.1324 381.309 60.5993 381.645 64.6141L387.624 64.1132C387.234 59.4461 386.113 55.2085 384.209 51.4507L378.857 54.1629ZM349.18 110.455H355.862V104.455H349.18V110.455ZM352.907 106.941L352.361 110.077L358.272 111.105L358.818 107.969L352.907 106.941ZM354.868 113.557C357.123 113.898 358.571 114.645 359.502 115.576L363.745 111.333C361.676 109.264 358.92 108.102 355.765 107.625L354.868 113.557ZM359.502 115.576C360.417 116.491 360.893 117.59 360.908 119.076L366.908 119.015C366.877 116.046 365.83 113.418 363.745 111.333L359.502 115.576ZM360.908 119.082C360.938 121.5 359.873 123.473 356.987 125.141L359.988 130.336C364.419 127.777 366.969 123.955 366.907 119.008L360.908 119.082ZM356.98 125.145C353.979 126.889 349.563 127.909 343.453 127.909V133.909C350.116 133.909 355.723 132.816 359.995 130.332L356.98 125.145ZM346.453 130.909V123.682H340.453V130.909H346.453ZM343.453 126.682C346.957 126.682 349.987 126.314 352.296 125.366L350.019 119.815C348.783 120.322 346.676 120.682 343.453 120.682V126.682ZM352.266 125.379C354.646 124.433 356.752 122.623 356.947 119.651L350.96 119.258C350.957 119.29 350.954 119.287 350.962 119.267C350.97 119.248 350.973 119.252 350.947 119.282C350.883 119.354 350.651 119.564 350.05 119.803L352.266 125.379ZM356.946 119.668C357.115 117.301 356.097 115.305 354.285 113.908L350.622 118.66C350.858 118.842 350.921 118.961 350.935 118.99C350.944 119.01 350.973 119.071 350.961 119.241L356.946 119.668ZM354.277 113.902C352.629 112.64 350.415 111.954 348.003 111.581L347.086 117.51C349.082 117.819 350.141 118.292 350.629 118.666L354.277 113.902ZM350.467 115.22L352.104 108.129L346.257 106.78L344.621 113.871L350.467 115.22ZM456.337 92.7614L458.945 94.2438L458.948 94.239L456.337 92.7614ZM444.098 104.864L445.505 107.513L445.514 107.508L444.098 104.864ZM409.666 104.83L408.236 107.467L408.243 107.471L408.25 107.474L409.666 104.83ZM397.462 92.6932L394.846 94.1624L394.85 94.169L394.853 94.1756L397.462 92.6932ZM397.462 53.4545L394.851 51.9769L394.849 51.9806L397.462 53.4545ZM409.666 41.3523L411.078 43.9993L411.082 43.9971L409.666 41.3523ZM444.098 41.3523L442.682 43.9971L442.691 44.0019L444.098 41.3523ZM456.337 53.4545L453.726 54.9322L453.728 54.937L456.337 53.4545ZM439.7 62.5227L436.894 63.5834L436.899 63.5967L436.904 63.6101L439.7 62.5227ZM434.825 55.9773L433.101 58.4325L433.116 58.4429L433.131 58.4532L434.825 55.9773ZM418.973 55.9773L420.679 58.4448L420.685 58.441L418.973 55.9773ZM414.098 62.5227L411.299 61.4428L411.295 61.4547L414.098 62.5227ZM414.098 83.6932L411.292 84.7538L411.297 84.7672L411.302 84.7805L414.098 83.6932ZM418.973 90.2386L417.249 92.6939L417.264 92.7043L417.279 92.7146L418.973 90.2386ZM434.825 90.2386L436.532 92.7062L436.537 92.7024L434.825 90.2386ZM439.7 83.6932L436.901 82.6133L436.897 82.6252L439.7 83.6932ZM417.643 31.3636V34.3636H420.643V31.3636H417.643ZM408.371 31.3636H405.371V34.3636H408.371V31.3636ZM411.746 20.4205L413.929 22.4785L413.933 22.4733L413.938 22.4681L411.746 20.4205ZM419.962 16.7727V13.7727H419.951L419.941 13.7728L419.962 16.7727ZM424.462 17.625L423.201 20.3474L423.231 20.3613L423.262 20.3746L424.462 17.625ZM427.734 19.5682L425.853 21.9052L425.853 21.9052L427.734 19.5682ZM430.257 21.5455L428.446 23.9367L428.486 23.9672L428.527 23.9964L430.257 21.5455ZM432.643 22.3636V25.3636H432.669L432.695 25.3632L432.643 22.3636ZM435.439 20.9318L432.878 19.37L432.863 19.393L432.85 19.4163L435.439 20.9318ZM436.325 17.0455V14.0455H433.366L433.326 17.0044L436.325 17.0455ZM445.462 17.0455L448.461 17.0879L448.504 14.0455H445.462V17.0455ZM441.984 27.9886L439.764 25.9716L439.759 25.9772L439.753 25.9829L441.984 27.9886ZM433.871 31.7727L433.909 34.7725L433.914 34.7724L433.871 31.7727ZM429.337 30.9545L428.076 33.6769L428.086 33.6813L428.095 33.6856L429.337 30.9545ZM426.132 29.0114L424.194 31.3015L424.226 31.3282L424.258 31.354L426.132 29.0114ZM423.643 27.0341L425.421 24.6171L425.421 24.6171L423.643 27.0341ZM418.598 27.5114L421.013 29.291L421.024 29.276L421.035 29.261L418.598 27.5114ZM457.871 73.0909C457.871 80.4813 456.434 86.4984 453.726 91.2837L458.948 94.239C462.285 88.3425 463.871 81.2459 463.871 73.0909H457.871ZM453.728 91.279C450.971 96.1307 447.294 99.7497 442.682 102.219L445.514 107.508C451.175 104.478 455.657 100.028 458.945 94.2438L453.728 91.279ZM442.691 102.214C438.025 104.692 432.787 105.955 426.916 105.955V111.955C433.682 111.955 439.898 110.49 445.505 107.513L442.691 102.214ZM426.916 105.955C421 105.955 415.744 104.681 411.082 102.185L408.25 107.474C413.861 110.479 420.105 111.955 426.916 111.955V105.955ZM411.096 102.192C406.501 99.7009 402.83 96.0678 400.07 91.2108L394.853 94.1756C398.138 99.9549 402.604 104.413 408.236 107.467L411.096 102.192ZM400.077 91.224C397.387 86.4344 395.962 80.4358 395.962 73.0909H389.962C389.962 81.2006 391.536 88.2701 394.846 94.1624L400.077 91.224ZM395.962 73.0909C395.962 65.6964 397.389 59.6902 400.075 54.9285L394.849 51.9806C391.535 57.8553 389.962 64.9399 389.962 73.0909H395.962ZM400.073 54.9322C402.832 50.0564 406.497 46.4425 411.078 43.9993L408.254 38.7052C402.608 41.7166 398.137 46.1708 394.851 51.9769L400.073 54.9322ZM411.082 43.9971C415.744 41.5013 421 40.2273 426.916 40.2273V34.2273C420.105 34.2273 413.861 35.7032 408.25 38.7075L411.082 43.9971ZM426.916 40.2273C432.783 40.2273 438.017 41.4996 442.682 43.9971L445.514 38.7075C439.906 35.7049 433.686 34.2273 426.916 34.2273V40.2273ZM442.691 44.0019C447.294 46.4461 450.968 50.0598 453.726 54.9322L458.948 51.9769C455.66 46.1675 451.175 41.713 445.505 38.7026L442.691 44.0019ZM453.728 54.937C456.434 59.6968 457.871 65.6999 457.871 73.0909H463.871C463.871 64.9365 462.285 57.8487 458.945 51.9721L453.728 54.937ZM444.371 73.0909C444.371 68.6627 443.784 64.7461 442.496 61.4354L436.904 63.6101C437.844 66.0266 438.371 69.1554 438.371 73.0909H444.371ZM442.507 61.4621C441.238 58.107 439.271 55.3842 436.519 53.5013L433.131 58.4532C434.698 59.5249 435.98 61.1657 436.894 63.5834L442.507 61.4621ZM436.549 53.522C433.813 51.601 430.543 50.7273 426.916 50.7273V56.7273C429.562 56.7273 431.565 57.3535 433.101 58.4325L436.549 53.522ZM426.916 50.7273C423.289 50.7273 420.014 51.6014 417.261 53.5135L420.685 58.441C422.251 57.3532 424.271 56.7273 426.916 56.7273V50.7273ZM417.267 53.5097C414.547 55.3906 412.587 58.1042 411.299 61.4428L416.897 63.6026C417.836 61.1685 419.127 59.5185 420.679 58.4448L417.267 53.5097ZM411.295 61.4547C410.036 64.759 409.462 68.6684 409.462 73.0909H415.462C415.462 69.1498 415.978 66.0138 416.901 63.5907L411.295 61.4547ZM409.462 73.0909C409.462 77.5146 410.036 81.4316 411.292 84.7538L416.904 82.6325C415.978 80.182 415.462 77.0308 415.462 73.0909H409.462ZM411.302 84.7805C412.591 88.0962 414.548 90.797 417.249 92.6939L420.697 87.7834C419.126 86.6803 417.832 85.0174 416.894 82.6058L411.302 84.7805ZM417.279 92.7146C420.029 94.5964 423.298 95.4545 426.916 95.4545V89.4545C424.262 89.4545 422.235 88.8354 420.667 87.7627L417.279 92.7146ZM426.916 95.4545C430.534 95.4545 433.797 94.5968 436.532 92.7062L433.119 87.7711C431.58 88.835 429.572 89.4545 426.916 89.4545V95.4545ZM436.537 92.7024C439.27 90.8034 441.234 88.0934 442.504 84.7612L436.897 82.6252C435.984 85.0202 434.698 86.6739 433.114 87.7749L436.537 92.7024ZM442.499 84.7731C443.783 81.4444 444.371 77.5203 444.371 73.0909H438.371C438.371 77.0252 437.844 80.1692 436.901 82.6133L442.499 84.7731ZM417.643 28.3636H408.371V34.3636H417.643V28.3636ZM411.371 31.3636C411.371 26.847 412.413 24.086 413.929 22.4785L409.563 18.3624C406.579 21.5276 405.371 26.0621 405.371 31.3636H411.371ZM413.938 22.4681C415.639 20.6466 417.599 19.7894 419.983 19.7726L419.941 13.7728C415.87 13.8015 412.352 15.3761 409.553 18.3728L413.938 22.4681ZM419.962 19.7727C421.429 19.7727 422.472 20.0096 423.201 20.3474L425.722 14.9026C423.997 14.104 422.04 13.7727 419.962 13.7727V19.7727ZM423.262 20.3746C424.301 20.828 425.156 21.3439 425.853 21.9052L429.615 17.2311C428.449 16.2925 427.122 15.5129 425.661 14.8754L423.262 20.3746ZM425.853 21.9052C426.802 22.669 427.667 23.3468 428.446 23.9367L432.069 19.1542C431.347 18.6077 430.53 17.9674 429.615 17.2311L425.853 21.9052ZM428.527 23.9964C429.724 24.8415 431.113 25.3636 432.643 25.3636V19.3636C432.538 19.3636 432.335 19.3403 431.987 19.0945L428.527 23.9964ZM432.695 25.3632C434.791 25.327 436.831 24.4928 438.028 22.4474L432.85 19.4163C432.847 19.4216 432.858 19.4025 432.887 19.3746C432.917 19.3462 432.946 19.3275 432.963 19.3185C432.997 19.3013 432.908 19.3586 432.592 19.3641L432.695 25.3632ZM438 22.4936C438.957 20.9243 439.298 19.0248 439.325 17.0865L433.326 17.0044C433.307 18.3843 433.057 19.0757 432.878 19.37L438 22.4936ZM436.325 20.0455H445.462V14.0455H436.325V20.0455ZM442.462 17.003C442.4 21.4072 441.344 24.2316 439.764 25.9716L444.205 30.0056C447.125 26.7911 448.387 22.3201 448.461 17.0879L442.462 17.003ZM439.753 25.9829C438.056 27.8713 436.131 28.7401 433.828 28.773L433.914 34.7724C437.975 34.7144 441.459 33.0605 444.215 29.9944L439.753 25.9829ZM433.832 28.773C432.377 28.7916 431.327 28.564 430.578 28.2234L428.095 33.6856C429.846 34.4815 431.819 34.7993 433.909 34.7725L433.832 28.773ZM430.597 28.2321C429.554 27.7495 428.699 27.2232 428.006 26.6688L424.258 31.354C425.383 32.254 426.664 33.0232 428.076 33.6769L430.597 28.2321ZM428.07 26.7212C427.142 25.9359 426.258 25.2331 425.421 24.6171L421.866 29.451C422.574 29.9715 423.35 30.5868 424.194 31.3015L428.07 26.7212ZM425.421 24.6171C424.193 23.7142 422.762 23.1818 421.189 23.1818V29.1818C421.343 29.1818 421.549 29.2176 421.866 29.451L425.421 24.6171ZM421.189 23.1818C419.131 23.1818 417.361 24.0906 416.161 25.7617L421.035 29.261C421.075 29.2048 421.101 29.1805 421.108 29.1747C421.113 29.1699 421.108 29.1756 421.093 29.1833C421.078 29.191 421.07 29.1922 421.077 29.1906C421.085 29.1887 421.12 29.1818 421.189 29.1818V23.1818ZM416.183 25.7318C415.002 27.335 414.643 29.3682 414.643 31.3636H420.643C420.643 29.95 420.922 29.415 421.013 29.291L416.183 25.7318ZM469.641 108H466.641V111H469.641V108ZM469.641 38.1818V35.1818H466.641V38.1818H469.641ZM519.959 38.1818H522.959V35.1818H519.959V38.1818ZM519.959 53.4545V56.4545H522.959V53.4545H519.959ZM488.595 53.4545V50.4545H485.595V53.4545H488.595ZM488.595 65.4545H485.595V68.4545H488.595V65.4545ZM517.368 65.4545H520.368V62.4545H517.368V65.4545ZM517.368 80.7273V83.7273H520.368V80.7273H517.368ZM488.595 80.7273V77.7273H485.595V80.7273H488.595ZM488.595 92.7273H485.595V95.7273H488.595V92.7273ZM519.822 92.7273H522.822V89.7273H519.822V92.7273ZM519.822 108V111H522.822V108H519.822ZM472.641 108V38.1818H466.641V108H472.641ZM469.641 41.1818H519.959V35.1818H469.641V41.1818ZM516.959 38.1818V53.4545H522.959V38.1818H516.959ZM519.959 50.4545H488.595V56.4545H519.959V50.4545ZM485.595 53.4545V65.4545H491.595V53.4545H485.595ZM488.595 68.4545H517.368V62.4545H488.595V68.4545ZM514.368 65.4545V80.7273H520.368V65.4545H514.368ZM517.368 77.7273H488.595V83.7273H517.368V77.7273ZM485.595 80.7273V92.7273H491.595V80.7273H485.595ZM488.595 95.7273H519.822V89.7273H488.595V95.7273ZM516.822 92.7273V108H522.822V92.7273H516.822ZM519.822 105H469.641V111H519.822V105ZM566.996 60L564.005 60.2392L564.226 63H566.996V60ZM564.439 54.6818L562.498 56.9693L562.506 56.9765L562.515 56.9837L564.439 54.6818ZM552.78 53.4886L553.822 56.3019L553.836 56.2967L553.85 56.2913L552.78 53.4886ZM550.053 55.3636L547.644 53.5747L547.644 53.5747L550.053 55.3636ZM549.132 58.0909L552.128 58.2528L552.13 58.2052L552.131 58.1576L549.132 58.0909ZM549.575 60.375L546.892 61.7166L546.919 61.771L546.949 61.8242L549.575 60.375ZM551.28 62.1818L549.55 64.6327L549.574 64.6499L549.599 64.6667L551.28 62.1818ZM558.541 64.7727L559.17 61.8393L559.157 61.8367L559.145 61.8341L558.541 64.7727ZM564.268 66L563.64 68.9334L563.647 68.9349L564.268 66ZM580.939 73.9773L578.777 76.0577L578.784 76.0645L578.791 76.0712L580.939 73.9773ZM584.791 80.0455L581.972 81.0707L581.976 81.0832L581.981 81.0957L584.791 80.0455ZM586.087 87.4091L589.087 87.4239L589.087 87.4037L589.087 87.3834L586.087 87.4091ZM582.643 99.0682L585.085 100.812L585.085 100.812L582.643 99.0682ZM572.893 106.33L571.797 103.537L571.792 103.539L572.893 106.33ZM541.837 106.125L540.725 108.911L540.73 108.913L541.837 106.125ZM531.337 97.8409L528.834 99.4945L528.839 99.5033L528.845 99.512L531.337 97.8409ZM527.587 83.4545V80.4545H524.575L524.587 83.4662L527.587 83.4545ZM545.587 83.4545L548.582 83.2952L548.431 80.4545H545.587V83.4545ZM547.189 88.8409L544.681 90.4869L544.681 90.4869L547.189 88.8409ZM551.212 92.1477L550.017 94.8995L550.023 94.9024L550.03 94.9052L551.212 92.1477ZM562.53 92.5227L563.563 95.3394L563.563 95.3394L562.53 92.5227ZM565.632 90.4432L567.981 92.3099L567.981 92.3099L565.632 90.4432ZM566.723 87.4091L569.722 87.4691L569.724 87.4072L569.722 87.3453L566.723 87.4091ZM565.666 84.6136L563.33 86.4956L563.359 86.5313L563.388 86.566L565.666 84.6136ZM562.393 82.4318L561.202 85.185L561.219 85.1925L561.237 85.1998L562.393 82.4318ZM556.223 80.5909L556.866 77.6605L556.856 77.6583L556.223 80.5909ZM549.268 79.0909L548.633 82.0227L548.636 82.0235L549.268 79.0909ZM534.643 72.375L532.648 74.6148L532.655 74.6216L532.663 74.6283L534.643 72.375ZM529.359 59.4545L532.359 59.467L532.359 59.4531L532.359 59.4392L529.359 59.4545ZM532.905 47.8295L530.471 46.0749L530.469 46.0779L532.905 47.8295ZM542.893 40.0227L541.694 37.2729L541.689 37.2753L542.893 40.0227ZM572.212 40.0568L570.961 42.7838L570.961 42.7838L572.212 40.0568ZM581.723 48.0341L579.207 49.6673L579.213 49.677L579.219 49.6866L581.723 48.0341ZM585.132 60V63H588.147L588.132 59.9851L585.132 60ZM569.986 59.7608C569.751 56.8152 568.597 54.2473 566.363 52.38L562.515 56.9837C563.326 57.6618 563.877 58.6393 564.005 60.2392L569.986 59.7608ZM566.38 52.3943C564.106 50.4651 560.988 49.7727 557.587 49.7727V55.7727C560.322 55.7727 561.772 56.3531 562.498 56.9693L566.38 52.3943ZM557.587 49.7727C555.42 49.7727 553.42 50.0329 551.71 50.686L553.85 56.2913C554.639 55.9899 555.844 55.7727 557.587 55.7727V49.7727ZM551.738 50.6754C550.137 51.2683 548.677 52.1848 547.644 53.5747L552.461 57.1526C552.61 56.9515 552.968 56.6181 553.822 56.3019L551.738 50.6754ZM547.644 53.5747C546.67 54.8861 546.169 56.4015 546.133 58.0243L552.131 58.1576C552.141 57.7349 552.253 57.4321 552.461 57.1526L547.644 53.5747ZM546.136 57.929C546.066 59.2339 546.295 60.5217 546.892 61.7166L552.259 59.0334C552.174 58.8647 552.107 58.6297 552.128 58.2528L546.136 57.929ZM546.949 61.8242C547.58 62.9693 548.499 63.8909 549.55 64.6327L553.01 59.7309C552.515 59.3819 552.298 59.0989 552.202 58.9258L546.949 61.8242ZM549.599 64.6667C550.64 65.371 551.873 65.9501 553.233 66.4377L555.258 60.7896C554.209 60.4135 553.465 60.0381 552.961 59.697L549.599 64.6667ZM553.233 66.4377C554.606 66.9297 556.181 67.3504 557.937 67.7113L559.145 61.8341C557.583 61.5132 556.295 61.1612 555.258 60.7896L553.233 66.4377ZM557.913 67.7061L563.64 68.9334L564.897 63.0666L559.17 61.8393L557.913 67.7061ZM563.647 68.9349C567.336 69.7162 570.398 70.7276 572.874 71.9352L575.504 66.5421C572.48 65.0678 568.928 63.9202 564.89 63.0651L563.647 68.9349ZM572.874 71.9352C575.373 73.1537 577.317 74.5403 578.777 76.0577L583.1 71.8969C581.061 69.7779 578.505 68.0054 575.504 66.5421L572.874 71.9352ZM578.791 76.0712C580.258 77.5768 581.306 79.2393 581.972 81.0707L587.611 79.0202C586.64 76.3516 585.12 73.9687 583.087 71.8833L578.791 76.0712ZM581.981 81.0957C582.687 82.9846 583.067 85.0883 583.087 87.4347L589.087 87.3834C589.061 84.4117 588.577 81.6063 587.601 78.9952L581.981 81.0957ZM583.087 87.3942C583.066 91.476 582.055 94.7307 580.202 97.3245L585.085 100.812C587.777 97.042 589.061 92.524 589.087 87.4239L583.087 87.3942ZM580.202 97.3245C578.319 99.9615 575.573 102.055 571.797 103.537L573.989 109.122C578.668 107.286 582.423 104.538 585.085 100.812L580.202 97.3245ZM571.792 103.539C568.028 105.024 563.365 105.818 557.723 105.818V111.818C563.899 111.818 569.35 110.953 573.995 109.12L571.792 103.539ZM557.723 105.818C551.944 105.818 547.039 104.962 542.944 103.337L540.73 108.913C545.68 110.878 551.366 111.818 557.723 111.818V105.818ZM542.948 103.339C538.963 101.749 535.964 99.3543 533.828 96.1698L528.845 99.512C531.709 103.782 535.71 106.91 540.725 108.911L542.948 103.339ZM533.84 96.1873C531.768 93.0511 530.608 88.8725 530.587 83.4429L524.587 83.4662C524.611 89.7184 525.951 95.1307 528.834 99.4945L533.84 96.1873ZM527.587 86.4545H545.587V80.4545H527.587V86.4545ZM542.591 83.6139C542.726 86.1592 543.375 88.4973 544.681 90.4869L549.697 87.1949C549.094 86.2755 548.674 85.0226 548.582 83.2952L542.591 83.6139ZM544.681 90.4869C545.983 92.4705 547.799 93.9367 550.017 94.8995L552.407 89.3959C551.169 88.8587 550.304 88.1204 549.697 87.1949L544.681 90.4869ZM550.03 94.9052C552.238 95.8516 554.739 96.2727 557.45 96.2727V90.2727C555.344 90.2727 553.685 89.9439 552.393 89.3903L550.03 94.9052ZM557.45 96.2727C559.697 96.2727 561.766 95.998 563.563 95.3394L561.497 89.7061C560.566 90.0474 559.249 90.2727 557.45 90.2727V96.2727ZM563.563 95.3394C565.3 94.7024 566.849 93.7339 567.981 92.3099L563.284 88.5764C563.006 88.9252 562.487 89.343 561.497 89.7061L563.563 95.3394ZM567.981 92.3099C569.096 90.9068 569.687 89.26 569.722 87.4691L563.724 87.3491C563.714 87.8309 563.577 88.2069 563.284 88.5765L567.981 92.3099ZM569.722 87.3453C569.685 85.598 569.087 83.9951 567.944 82.6613L563.388 86.566C563.609 86.8231 563.715 87.0838 563.724 87.4729L569.722 87.3453ZM568.002 82.7316C566.901 81.3639 565.296 80.3933 563.55 79.6638L561.237 85.1998C562.536 85.743 563.114 86.227 563.33 86.4956L568.002 82.7316ZM563.585 79.6786C561.813 78.9116 559.547 78.2487 556.866 77.6605L555.58 83.5213C558.08 84.0695 559.929 84.6339 561.202 85.185L563.585 79.6786ZM556.856 77.6583L549.901 76.1583L548.636 82.0235L555.59 83.5235L556.856 77.6583ZM549.904 76.1591C544.062 74.8918 539.703 72.8279 536.624 70.1217L532.663 74.6283C536.721 78.1949 542.111 80.6082 548.633 82.0227L549.904 76.1591ZM536.639 70.1352C533.834 67.636 532.34 64.2031 532.359 59.467L526.359 59.442C526.334 65.6151 528.362 70.7958 532.648 74.6148L536.639 70.1352ZM532.359 59.4392C532.34 55.5847 533.356 52.3407 535.34 49.5811L530.469 46.0779C527.681 49.9547 526.334 54.4607 526.359 59.4699L532.359 59.4392ZM535.338 49.5842C537.396 46.7311 540.276 44.4464 544.098 42.7702L541.689 37.2753C537.011 39.3263 533.232 42.2462 530.471 46.0749L535.338 49.5842ZM544.093 42.7725C547.924 41.1015 552.402 40.2273 557.587 40.2273V34.2273C551.726 34.2273 546.408 35.2167 541.694 37.2729L544.093 42.7725ZM557.587 40.2273C562.894 40.2273 567.324 41.1158 570.961 42.7838L573.462 37.3299C568.872 35.2251 563.552 34.2273 557.587 34.2273V40.2273ZM570.961 42.7838C574.614 44.459 577.321 46.7626 579.207 49.6673L584.239 46.4009C581.67 42.442 578.036 39.4273 573.462 37.3299L570.961 42.7838ZM579.219 49.6866C581.111 52.5533 582.112 55.9579 582.132 60.0149L588.132 59.9851C588.107 54.9058 586.835 50.3331 584.227 46.3816L579.219 49.6866ZM585.132 57H566.996V63H585.132V57Z" fill="#FF8F12" mask="url(#path-1-outside-1_1_27)"/>
</svg>
