<svg width="786" height="116" viewBox="0 0 786 116" fill="none" xmlns="http://www.w3.org/2000/svg">
<mask id="path-1-outside-1_1_55" maskUnits="userSpaceOnUse" x="1" y="19" width="745" height="79" fill="black">
<rect fill="white" x="1" y="19" width="745" height="79"/>
<path d="M4.5 93V23.1818H54.8182V38.4545H23.4545V50.4545H52.2273V65.7273H23.4545V77.7273H54.6818V93H4.5ZM83.3438 23.1818H106.935L123.162 62.7273H123.98L140.207 23.1818H163.798V93H145.253V52.6364H144.707L129.162 92.4545H117.98L102.435 52.3636H101.889V93H83.3438V23.1818ZM214.099 23.1818H233.054V67.9091C233.054 73.2273 231.781 77.8295 229.236 81.7159C226.713 85.5795 223.19 88.5682 218.668 90.6818C214.145 92.7727 208.895 93.8182 202.918 93.8182C196.895 93.8182 191.622 92.7727 187.099 90.6818C182.577 88.5682 179.054 85.5795 176.531 81.7159C174.031 77.8295 172.781 73.2273 172.781 67.9091V23.1818H191.736V66.2727C191.736 68.4318 192.213 70.3636 193.168 72.0682C194.122 73.75 195.44 75.0682 197.122 76.0227C198.827 76.9773 200.759 77.4545 202.918 77.4545C205.099 77.4545 207.031 76.9773 208.713 76.0227C210.395 75.0682 211.713 73.75 212.668 72.0682C213.622 70.3636 214.099 68.4318 214.099 66.2727V23.1818ZM261.017 23.1818V93H242.062V23.1818H261.017ZM268.091 38.4545V23.1818H328.773V38.4545H307.773V93H289.091V38.4545H268.091ZM400.261 58.0909C400.261 65.8636 398.75 72.4205 395.727 77.7614C392.705 83.0795 388.625 87.1136 383.489 89.8636C378.352 92.5909 372.625 93.9545 366.307 93.9545C359.943 93.9545 354.193 92.5795 349.057 89.8295C343.943 87.0568 339.875 83.0114 336.852 77.6932C333.852 72.3523 332.352 65.8182 332.352 58.0909C332.352 50.3182 333.852 43.7727 336.852 38.4545C339.875 33.1136 343.943 29.0795 349.057 26.3523C354.193 23.6023 359.943 22.2273 366.307 22.2273C372.625 22.2273 378.352 23.6023 383.489 26.3523C388.625 29.0795 392.705 33.1136 395.727 38.4545C398.75 43.7727 400.261 50.3182 400.261 58.0909ZM380.761 58.0909C380.761 53.9091 380.205 50.3864 379.091 47.5227C378 44.6364 376.375 42.4545 374.216 40.9773C372.08 39.4773 369.443 38.7273 366.307 38.7273C363.17 38.7273 360.523 39.4773 358.364 40.9773C356.227 42.4545 354.602 44.6364 353.489 47.5227C352.398 50.3864 351.852 53.9091 351.852 58.0909C351.852 62.2727 352.398 65.8068 353.489 68.6932C354.602 71.5568 356.227 73.7386 358.364 75.2386C360.523 76.7159 363.17 77.4545 366.307 77.4545C369.443 77.4545 372.08 76.7159 374.216 75.2386C376.375 73.7386 378 71.5568 379.091 68.6932C380.205 65.8068 380.761 62.2727 380.761 58.0909ZM428.156 23.1818H451.747L467.974 62.7273H468.793L485.02 23.1818H508.611V93H490.065V52.6364H489.52L473.974 92.4545H462.793L447.247 52.3636H446.702V93H428.156V23.1818ZM535.73 93H515.276L538.321 23.1818H564.23L587.276 93H566.821L551.548 42.4091H551.003L535.73 93ZM531.912 65.4545H570.366V79.6364H531.912V65.4545ZM612.955 23.1818V93H594V23.1818H612.955ZM659.574 45C659.392 42.7273 658.54 40.9545 657.017 39.6818C655.517 38.4091 653.233 37.7727 650.165 37.7727C648.21 37.7727 646.608 38.0114 645.358 38.4886C644.131 38.9432 643.222 39.5682 642.631 40.3636C642.04 41.1591 641.733 42.0682 641.71 43.0909C641.665 43.9318 641.813 44.6932 642.153 45.375C642.517 46.0341 643.085 46.6364 643.858 47.1818C644.631 47.7045 645.619 48.1818 646.824 48.6136C648.028 49.0455 649.46 49.4318 651.119 49.7727L656.847 51C660.71 51.8182 664.017 52.8977 666.767 54.2386C669.517 55.5795 671.767 57.1591 673.517 58.9773C675.267 60.7727 676.551 62.7955 677.369 65.0455C678.21 67.2955 678.642 69.75 678.665 72.4091C678.642 77 677.494 80.8864 675.222 84.0682C672.949 87.25 669.699 89.6705 665.472 91.3295C661.267 92.9886 656.21 93.8182 650.301 93.8182C644.233 93.8182 638.938 92.9205 634.415 91.125C629.915 89.3295 626.415 86.5682 623.915 82.8409C621.438 79.0909 620.188 74.2955 620.165 68.4545H638.165C638.278 70.5909 638.813 72.3864 639.767 73.8409C640.722 75.2955 642.063 76.3977 643.79 77.1477C645.54 77.8977 647.619 78.2727 650.028 78.2727C652.051 78.2727 653.744 78.0227 655.108 77.5227C656.472 77.0227 657.506 76.3295 658.21 75.4432C658.915 74.5568 659.278 73.5455 659.301 72.4091C659.278 71.3409 658.926 70.4091 658.244 69.6136C657.585 68.7955 656.494 68.0682 654.972 67.4318C653.449 66.7727 651.392 66.1591 648.801 65.5909L641.847 64.0909C635.665 62.75 630.79 60.5114 627.222 57.375C623.676 54.2159 621.915 49.9091 621.938 44.4545C621.915 40.0227 623.097 36.1477 625.483 32.8295C627.892 29.4886 631.222 26.8864 635.472 25.0227C639.744 23.1591 644.642 22.2273 650.165 22.2273C655.801 22.2273 660.676 23.1705 664.79 25.0568C668.903 26.9432 672.074 29.6023 674.301 33.0341C676.551 36.4432 677.688 40.4318 677.71 45H659.574ZM707.966 23.1818L706.193 71.1818H690.648L688.875 23.1818H707.966ZM698.42 94.0909C695.784 94.0909 693.523 93.1705 691.636 91.3295C689.773 89.4659 688.852 87.2045 688.875 84.5455C688.852 81.9545 689.773 79.7386 691.636 77.8977C693.523 76.0568 695.784 75.1364 698.42 75.1364C700.92 75.1364 703.125 76.0568 705.034 77.8977C706.966 79.7386 707.943 81.9545 707.966 84.5455C707.943 86.3182 707.477 87.9318 706.568 89.3864C705.682 90.8182 704.523 91.9659 703.091 92.8295C701.659 93.6705 700.102 94.0909 698.42 94.0909ZM742.091 23.1818L740.318 71.1818H724.773L723 23.1818H742.091ZM732.545 94.0909C729.909 94.0909 727.648 93.1705 725.761 91.3295C723.898 89.4659 722.977 87.2045 723 84.5455C722.977 81.9545 723.898 79.7386 725.761 77.8977C727.648 76.0568 729.909 75.1364 732.545 75.1364C735.045 75.1364 737.25 76.0568 739.159 77.8977C741.091 79.7386 742.068 81.9545 742.091 84.5455C742.068 86.3182 741.602 87.9318 740.693 89.3864C739.807 90.8182 738.648 91.9659 737.216 92.8295C735.784 93.6705 734.227 94.0909 732.545 94.0909Z"/>
</mask>
<path d="M4.5 93H1.5V96H4.5V93ZM4.5 23.1818V20.1818H1.5V23.1818H4.5ZM54.8182 23.1818H57.8182V20.1818H54.8182V23.1818ZM54.8182 38.4545V41.4545H57.8182V38.4545H54.8182ZM23.4545 38.4545V35.4545H20.4545V38.4545H23.4545ZM23.4545 50.4545H20.4545V53.4545H23.4545V50.4545ZM52.2273 50.4545H55.2273V47.4545H52.2273V50.4545ZM52.2273 65.7273V68.7273H55.2273V65.7273H52.2273ZM23.4545 65.7273V62.7273H20.4545V65.7273H23.4545ZM23.4545 77.7273H20.4545V80.7273H23.4545V77.7273ZM54.6818 77.7273H57.6818V74.7273H54.6818V77.7273ZM54.6818 93V96H57.6818V93H54.6818ZM7.5 93V23.1818H1.5V93H7.5ZM4.5 26.1818H54.8182V20.1818H4.5V26.1818ZM51.8182 23.1818V38.4545H57.8182V23.1818H51.8182ZM54.8182 35.4545H23.4545V41.4545H54.8182V35.4545ZM20.4545 38.4545V50.4545H26.4545V38.4545H20.4545ZM23.4545 53.4545H52.2273V47.4545H23.4545V53.4545ZM49.2273 50.4545V65.7273H55.2273V50.4545H49.2273ZM52.2273 62.7273H23.4545V68.7273H52.2273V62.7273ZM20.4545 65.7273V77.7273H26.4545V65.7273H20.4545ZM23.4545 80.7273H54.6818V74.7273H23.4545V80.7273ZM51.6818 77.7273V93H57.6818V77.7273H51.6818ZM54.6818 90H4.5V96H54.6818V90ZM83.3438 23.1818V20.1818H80.3438V23.1818H83.3438ZM106.935 23.1818L109.71 22.0429L108.946 20.1818H106.935V23.1818ZM123.162 62.7273L120.387 63.8662L121.15 65.7273H123.162V62.7273ZM123.98 62.7273V65.7273H125.992L126.756 63.8662L123.98 62.7273ZM140.207 23.1818V20.1818H138.196L137.432 22.0429L140.207 23.1818ZM163.798 23.1818H166.798V20.1818H163.798V23.1818ZM163.798 93V96H166.798V93H163.798ZM145.253 93H142.253V96H145.253V93ZM145.253 52.6364H148.253V49.6364H145.253V52.6364ZM144.707 52.6364V49.6364H142.658L141.913 51.5453L144.707 52.6364ZM129.162 92.4545V95.4545H131.211L131.957 93.5456L129.162 92.4545ZM117.98 92.4545L115.183 93.5391L115.926 95.4545H117.98V92.4545ZM102.435 52.3636L105.232 51.2791L104.489 49.3636H102.435V52.3636ZM101.889 52.3636V49.3636H98.8892V52.3636H101.889ZM101.889 93V96H104.889V93H101.889ZM83.3438 93H80.3438V96H83.3438V93ZM83.3438 26.1818H106.935V20.1818H83.3438V26.1818ZM104.159 24.3207L120.387 63.8662L125.937 61.5884L109.71 22.0429L104.159 24.3207ZM123.162 65.7273H123.98V59.7273H123.162V65.7273ZM126.756 63.8662L142.983 24.3207L137.432 22.0429L121.205 61.5884L126.756 63.8662ZM140.207 26.1818H163.798V20.1818H140.207V26.1818ZM160.798 23.1818V93H166.798V23.1818H160.798ZM163.798 90H145.253V96H163.798V90ZM148.253 93V52.6364H142.253V93H148.253ZM145.253 49.6364H144.707V55.6364H145.253V49.6364ZM141.913 51.5453L126.367 91.3635L131.957 93.5456L147.502 53.7274L141.913 51.5453ZM129.162 89.4545H117.98V95.4545H129.162V89.4545ZM120.777 91.37L105.232 51.2791L99.6376 53.4482L115.183 93.5391L120.777 91.37ZM102.435 49.3636H101.889V55.3636H102.435V49.3636ZM98.8892 52.3636V93H104.889V52.3636H98.8892ZM101.889 90H83.3438V96H101.889V90ZM86.3438 93V23.1818H80.3438V93H86.3438ZM214.099 23.1818V20.1818H211.099V23.1818H214.099ZM233.054 23.1818H236.054V20.1818H233.054V23.1818ZM229.236 81.7159L226.726 80.0722L226.724 80.0758L229.236 81.7159ZM218.668 90.6818L219.927 93.4049L219.938 93.3997L218.668 90.6818ZM187.099 90.6818L185.829 93.3997L185.841 93.4049L187.099 90.6818ZM176.531 81.7159L174.008 83.3389L174.014 83.3475L174.019 83.3561L176.531 81.7159ZM172.781 23.1818V20.1818H169.781V23.1818H172.781ZM191.736 23.1818H194.736V20.1818H191.736V23.1818ZM193.168 72.0682L190.55 73.534L190.554 73.5415L190.559 73.549L193.168 72.0682ZM197.122 76.0227L195.641 78.6318L195.649 78.636L195.656 78.6402L197.122 76.0227ZM208.713 76.0227L210.194 78.6318L210.194 78.6318L208.713 76.0227ZM212.668 72.0682L215.277 73.549L215.281 73.5415L215.285 73.534L212.668 72.0682ZM214.099 26.1818H233.054V20.1818H214.099V26.1818ZM230.054 23.1818V67.9091H236.054V23.1818H230.054ZM230.054 67.9091C230.054 72.7302 228.907 76.7422 226.726 80.0722L231.745 83.3596C234.655 78.9168 236.054 73.7244 236.054 67.9091H230.054ZM226.724 80.0758C224.532 83.4333 221.457 86.0668 217.397 87.964L219.938 93.3997C224.924 91.0696 228.895 87.7258 231.748 83.3561L226.724 80.0758ZM217.409 87.9587C213.351 89.8345 208.546 90.8182 202.918 90.8182V96.8182C209.244 96.8182 214.938 95.711 219.927 93.4049L217.409 87.9587ZM202.918 90.8182C197.24 90.8182 192.413 89.8332 188.358 87.9587L185.841 93.4049C190.831 95.7123 196.549 96.8182 202.918 96.8182V90.8182ZM188.37 87.964C184.31 86.0668 181.235 83.4333 179.043 80.0758L174.019 83.3561C176.873 87.7258 180.843 91.0696 185.829 93.3997L188.37 87.964ZM179.054 80.0929C176.911 76.7603 175.781 72.7406 175.781 67.9091H169.781C169.781 73.7139 171.152 78.8988 174.008 83.3389L179.054 80.0929ZM175.781 67.9091V23.1818H169.781V67.9091H175.781ZM172.781 26.1818H191.736V20.1818H172.781V26.1818ZM188.736 23.1818V66.2727H194.736V23.1818H188.736ZM188.736 66.2727C188.736 68.8899 189.319 71.3358 190.55 73.534L195.785 70.6024C195.107 69.3915 194.736 67.9738 194.736 66.2727H188.736ZM190.559 73.549C191.78 75.7018 193.488 77.4099 195.641 78.6318L198.603 73.4137C197.392 72.7265 196.464 71.7982 195.777 70.5874L190.559 73.549ZM195.656 78.6402C197.855 79.8713 200.3 80.4545 202.918 80.4545V74.4545C201.217 74.4545 199.799 74.0833 198.588 73.4052L195.656 78.6402ZM202.918 80.4545C205.551 80.4545 208.005 79.8741 210.194 78.6318L207.232 73.4137C206.057 74.0805 204.648 74.4545 202.918 74.4545V80.4545ZM210.194 78.6318C212.347 77.4099 214.055 75.7018 215.277 73.549L210.059 70.5874C209.371 71.7982 208.443 72.7265 207.232 73.4137L210.194 78.6318ZM215.285 73.534C216.516 71.3358 217.099 68.8899 217.099 66.2727H211.099C211.099 67.9738 210.728 69.3915 210.05 70.6024L215.285 73.534ZM217.099 66.2727V23.1818H211.099V66.2727H217.099ZM261.017 23.1818H264.017V20.1818H261.017V23.1818ZM261.017 93V96H264.017V93H261.017ZM242.062 93H239.062V96H242.062V93ZM242.062 23.1818V20.1818H239.062V23.1818H242.062ZM258.017 23.1818V93H264.017V23.1818H258.017ZM261.017 90H242.062V96H261.017V90ZM245.062 93V23.1818H239.062V93H245.062ZM242.062 26.1818H261.017V20.1818H242.062V26.1818ZM268.091 38.4545H265.091V41.4545H268.091V38.4545ZM268.091 23.1818V20.1818H265.091V23.1818H268.091ZM328.773 23.1818H331.773V20.1818H328.773V23.1818ZM328.773 38.4545V41.4545H331.773V38.4545H328.773ZM307.773 38.4545V35.4545H304.773V38.4545H307.773ZM307.773 93V96H310.773V93H307.773ZM289.091 93H286.091V96H289.091V93ZM289.091 38.4545H292.091V35.4545H289.091V38.4545ZM271.091 38.4545V23.1818H265.091V38.4545H271.091ZM268.091 26.1818H328.773V20.1818H268.091V26.1818ZM325.773 23.1818V38.4545H331.773V23.1818H325.773ZM328.773 35.4545H307.773V41.4545H328.773V35.4545ZM304.773 38.4545V93H310.773V38.4545H304.773ZM307.773 90H289.091V96H307.773V90ZM292.091 93V38.4545H286.091V93H292.091ZM289.091 35.4545H268.091V41.4545H289.091V35.4545ZM395.727 77.7614L398.335 79.2438L398.338 79.239L395.727 77.7614ZM383.489 89.8636L384.896 92.5133L384.905 92.5084L383.489 89.8636ZM349.057 89.8295L347.627 92.4668L347.634 92.4706L347.641 92.4743L349.057 89.8295ZM336.852 77.6932L334.237 79.1624L334.24 79.169L334.244 79.1756L336.852 77.6932ZM336.852 38.4545L334.241 36.9769L334.239 36.9806L336.852 38.4545ZM349.057 26.3523L350.469 28.9993L350.473 28.9971L349.057 26.3523ZM383.489 26.3523L382.073 28.9971L382.082 29.0019L383.489 26.3523ZM395.727 38.4545L393.116 39.9322L393.119 39.937L395.727 38.4545ZM379.091 47.5227L376.285 48.5834L376.29 48.5967L376.295 48.6101L379.091 47.5227ZM374.216 40.9773L372.492 43.4325L372.507 43.4429L372.522 43.4532L374.216 40.9773ZM358.364 40.9773L360.07 43.4448L360.075 43.441L358.364 40.9773ZM353.489 47.5227L350.69 46.4428L350.685 46.4547L353.489 47.5227ZM353.489 68.6932L350.682 69.7538L350.687 69.7672L350.693 69.7805L353.489 68.6932ZM358.364 75.2386L356.64 77.6939L356.655 77.7043L356.67 77.7146L358.364 75.2386ZM374.216 75.2386L375.922 77.7062L375.928 77.7024L374.216 75.2386ZM379.091 68.6932L376.292 67.6133L376.287 67.6252L379.091 68.6932ZM397.261 58.0909C397.261 65.4813 395.825 71.4984 393.116 76.2837L398.338 79.239C401.675 73.3425 403.261 66.2459 403.261 58.0909H397.261ZM393.119 76.279C390.361 81.1307 386.684 84.7497 382.073 87.2188L384.905 92.5084C390.566 89.4775 395.048 85.0284 398.335 79.2438L393.119 76.279ZM382.082 87.214C377.415 89.6917 372.178 90.9545 366.307 90.9545V96.9545C373.072 96.9545 379.289 95.4901 384.896 92.5133L382.082 87.214ZM366.307 90.9545C360.391 90.9545 355.134 89.6805 350.473 87.1848L347.641 92.4743C353.252 95.4786 359.496 96.9545 366.307 96.9545V90.9545ZM350.487 87.1923C345.892 84.7009 342.221 81.0678 339.46 76.2108L334.244 79.1756C337.529 84.9549 341.994 89.4127 347.627 92.4668L350.487 87.1923ZM339.468 76.224C336.778 71.4344 335.352 65.4358 335.352 58.0909H329.352C329.352 66.2006 330.927 73.2701 334.237 79.1624L339.468 76.224ZM335.352 58.0909C335.352 50.6964 336.779 44.6902 339.465 39.9285L334.239 36.9806C330.925 42.8553 329.352 49.9399 329.352 58.0909H335.352ZM339.463 39.9322C342.223 35.0564 345.888 31.4425 350.469 28.9993L347.645 23.7052C341.999 26.7166 337.527 31.1708 334.241 36.9769L339.463 39.9322ZM350.473 28.9971C355.134 26.5013 360.391 25.2273 366.307 25.2273V19.2273C359.496 19.2273 353.252 20.7032 347.641 23.7075L350.473 28.9971ZM366.307 25.2273C372.174 25.2273 377.408 26.4996 382.073 28.9971L384.905 23.7075C379.297 20.7049 373.076 19.2273 366.307 19.2273V25.2273ZM382.082 29.0019C386.685 31.4461 390.359 35.0598 393.116 39.9322L398.338 36.9769C395.05 31.1675 390.565 26.713 384.896 23.7026L382.082 29.0019ZM393.119 39.937C395.824 44.6968 397.261 50.6999 397.261 58.0909H403.261C403.261 49.9365 401.676 42.8487 398.335 36.9721L393.119 39.937ZM383.761 58.0909C383.761 53.6627 383.174 49.7461 381.887 46.4354L376.295 48.6101C377.235 51.0266 377.761 54.1554 377.761 58.0909H383.761ZM381.897 46.4621C380.629 43.107 378.662 40.3842 375.91 38.5013L372.522 43.4532C374.088 44.5249 375.371 46.1657 376.285 48.5834L381.897 46.4621ZM375.94 38.522C373.204 36.601 369.933 35.7273 366.307 35.7273V41.7273C368.953 41.7273 370.955 42.3535 372.492 43.4325L375.94 38.522ZM366.307 35.7273C362.679 35.7273 359.404 36.6014 356.652 38.5135L360.075 43.441C361.641 42.3532 363.662 41.7273 366.307 41.7273V35.7273ZM356.657 38.5097C353.937 40.3906 351.978 43.1042 350.69 46.4428L356.288 48.6026C357.227 46.1685 358.517 44.5185 360.07 43.4448L356.657 38.5097ZM350.685 46.4547C349.426 49.759 348.852 53.6684 348.852 58.0909H354.852C354.852 54.1498 355.369 51.0138 356.292 48.5907L350.685 46.4547ZM348.852 58.0909C348.852 62.5146 349.427 66.4316 350.682 69.7538L356.295 67.6325C355.369 65.182 354.852 62.0308 354.852 58.0909H348.852ZM350.693 69.7805C351.982 73.0962 353.938 75.797 356.64 77.6939L360.088 72.7834C358.516 71.6803 357.222 70.0174 356.285 67.6058L350.693 69.7805ZM356.67 77.7146C359.42 79.5964 362.688 80.4545 366.307 80.4545V74.4545C363.653 74.4545 361.626 73.8354 360.058 72.7627L356.67 77.7146ZM366.307 80.4545C369.924 80.4545 373.188 79.5968 375.922 77.7062L372.51 72.7711C370.971 73.835 368.962 74.4545 366.307 74.4545V80.4545ZM375.928 77.7024C378.661 75.8034 380.625 73.0934 381.894 69.7612L376.287 67.6252C375.375 70.0202 374.089 71.6739 372.504 72.7749L375.928 77.7024ZM381.89 69.7731C383.174 66.4444 383.761 62.5203 383.761 58.0909H377.761C377.761 62.0252 377.235 65.1692 376.292 67.6133L381.89 69.7731ZM428.156 23.1818V20.1818H425.156V23.1818H428.156ZM451.747 23.1818L454.523 22.0429L453.759 20.1818H451.747V23.1818ZM467.974 62.7273L465.199 63.8662L465.963 65.7273H467.974V62.7273ZM468.793 62.7273V65.7273H470.804L471.568 63.8662L468.793 62.7273ZM485.02 23.1818V20.1818H483.008L482.244 22.0429L485.02 23.1818ZM508.611 23.1818H511.611V20.1818H508.611V23.1818ZM508.611 93V96H511.611V93H508.611ZM490.065 93H487.065V96H490.065V93ZM490.065 52.6364H493.065V49.6364H490.065V52.6364ZM489.52 52.6364V49.6364H487.471L486.725 51.5453L489.52 52.6364ZM473.974 92.4545V95.4545H476.024L476.769 93.5456L473.974 92.4545ZM462.793 92.4545L459.996 93.5391L460.738 95.4545H462.793V92.4545ZM447.247 52.3636L450.044 51.2791L449.302 49.3636H447.247V52.3636ZM446.702 52.3636V49.3636H443.702V52.3636H446.702ZM446.702 93V96H449.702V93H446.702ZM428.156 93H425.156V96H428.156V93ZM428.156 26.1818H451.747V20.1818H428.156V26.1818ZM448.972 24.3207L465.199 63.8662L470.75 61.5884L454.523 22.0429L448.972 24.3207ZM467.974 65.7273H468.793V59.7273H467.974V65.7273ZM471.568 63.8662L487.795 24.3207L482.244 22.0429L466.017 61.5884L471.568 63.8662ZM485.02 26.1818H508.611V20.1818H485.02V26.1818ZM505.611 23.1818V93H511.611V23.1818H505.611ZM508.611 90H490.065V96H508.611V90ZM493.065 93V52.6364H487.065V93H493.065ZM490.065 49.6364H489.52V55.6364H490.065V49.6364ZM486.725 51.5453L471.18 91.3635L476.769 93.5456L492.314 53.7274L486.725 51.5453ZM473.974 89.4545H462.793V95.4545H473.974V89.4545ZM465.59 91.37L450.044 51.2791L444.45 53.4482L459.996 93.5391L465.59 91.37ZM447.247 49.3636H446.702V55.3636H447.247V49.3636ZM443.702 52.3636V93H449.702V52.3636H443.702ZM446.702 90H428.156V96H446.702V90ZM431.156 93V23.1818H425.156V93H431.156ZM535.73 93V96H537.958L538.602 93.867L535.73 93ZM515.276 93L512.427 92.0597L511.126 96H515.276V93ZM538.321 23.1818V20.1818H536.152L535.472 22.2415L538.321 23.1818ZM564.23 23.1818L567.079 22.2415L566.399 20.1818H564.23V23.1818ZM587.276 93V96H591.425L590.124 92.0597L587.276 93ZM566.821 93L563.949 93.867L564.593 96H566.821V93ZM551.548 42.4091L554.42 41.5421L553.776 39.4091H551.548V42.4091ZM551.003 42.4091V39.4091H548.775L548.131 41.5421L551.003 42.4091ZM531.912 65.4545V62.4545H528.912V65.4545H531.912ZM570.366 65.4545H573.366V62.4545H570.366V65.4545ZM570.366 79.6364V82.6364H573.366V79.6364H570.366ZM531.912 79.6364H528.912V82.6364H531.912V79.6364ZM535.73 90H515.276V96H535.73V90ZM518.124 93.9403L541.17 24.1221L535.472 22.2415L512.427 92.0597L518.124 93.9403ZM538.321 26.1818H564.23V20.1818H538.321V26.1818ZM561.381 24.1221L584.427 93.9403L590.124 92.0597L567.079 22.2415L561.381 24.1221ZM587.276 90H566.821V96H587.276V90ZM569.693 92.133L554.42 41.5421L548.676 43.2761L563.949 93.867L569.693 92.133ZM551.548 39.4091H551.003V45.4091H551.548V39.4091ZM548.131 41.5421L532.858 92.133L538.602 93.867L553.875 43.2761L548.131 41.5421ZM531.912 68.4545H570.366V62.4545H531.912V68.4545ZM567.366 65.4545V79.6364H573.366V65.4545H567.366ZM570.366 76.6364H531.912V82.6364H570.366V76.6364ZM534.912 79.6364V65.4545H528.912V79.6364H534.912ZM612.955 23.1818H615.955V20.1818H612.955V23.1818ZM612.955 93V96H615.955V93H612.955ZM594 93H591V96H594V93ZM594 23.1818V20.1818H591V23.1818H594ZM609.955 23.1818V93H615.955V23.1818H609.955ZM612.955 90H594V96H612.955V90ZM597 93V23.1818H591V93H597ZM594 26.1818H612.955V20.1818H594V26.1818ZM659.574 45L656.583 45.2392L656.804 48H659.574V45ZM657.017 39.6818L655.076 41.9693L655.085 41.9765L655.093 41.9837L657.017 39.6818ZM645.358 38.4886L646.4 41.3019L646.414 41.2967L646.428 41.2913L645.358 38.4886ZM642.631 40.3636L640.222 38.5747L640.222 38.5747L642.631 40.3636ZM641.71 43.0909L644.706 43.2528L644.708 43.2052L644.709 43.1576L641.71 43.0909ZM642.153 45.375L639.47 46.7166L639.497 46.771L639.527 46.8242L642.153 45.375ZM643.858 47.1818L642.128 49.6327L642.152 49.6499L642.177 49.6667L643.858 47.1818ZM651.119 49.7727L651.748 46.8393L651.736 46.8367L651.723 46.8341L651.119 49.7727ZM656.847 51L656.218 53.9334L656.225 53.9349L656.847 51ZM673.517 58.9773L671.356 61.0577L671.362 61.0645L671.369 61.0712L673.517 58.9773ZM677.369 65.0455L674.55 66.0707L674.555 66.0832L674.559 66.0957L677.369 65.0455ZM678.665 72.4091L681.665 72.4239L681.665 72.4037L681.665 72.3834L678.665 72.4091ZM675.222 84.0682L677.663 85.8119L677.663 85.8119L675.222 84.0682ZM665.472 91.3295L664.376 88.5369L664.37 88.5389L665.472 91.3295ZM634.415 91.125L633.303 93.9114L633.308 93.9133L634.415 91.125ZM623.915 82.8409L621.412 84.4945L621.417 84.5033L621.423 84.512L623.915 82.8409ZM620.165 68.4545V65.4545H617.153L617.165 68.4662L620.165 68.4545ZM638.165 68.4545L641.161 68.2952L641.009 65.4545H638.165V68.4545ZM639.767 73.8409L637.259 75.4869L637.259 75.4869L639.767 73.8409ZM643.79 77.1477L642.595 79.8995L642.601 79.9024L642.608 79.9052L643.79 77.1477ZM655.108 77.5227L656.141 80.3394L656.141 80.3394L655.108 77.5227ZM658.21 75.4432L660.559 77.3099L660.559 77.3099L658.21 75.4432ZM659.301 72.4091L662.301 72.4691L662.302 72.4072L662.3 72.3453L659.301 72.4091ZM658.244 69.6136L655.908 71.4956L655.937 71.5313L655.967 71.566L658.244 69.6136ZM654.972 67.4318L653.78 70.185L653.797 70.1925L653.815 70.1998L654.972 67.4318ZM648.801 65.5909L649.444 62.6605L649.434 62.6583L648.801 65.5909ZM641.847 64.0909L641.211 67.0227L641.214 67.0235L641.847 64.0909ZM627.222 57.375L625.226 59.6148L625.233 59.6216L625.241 59.6283L627.222 57.375ZM621.938 44.4545L624.937 44.467L624.938 44.4531L624.937 44.4392L621.938 44.4545ZM625.483 32.8295L623.05 31.0749L623.047 31.0779L625.483 32.8295ZM635.472 25.0227L634.272 22.2729L634.267 22.2753L635.472 25.0227ZM664.79 25.0568L663.539 27.7838L663.539 27.7838L664.79 25.0568ZM674.301 33.0341L671.785 34.6673L671.791 34.677L671.797 34.6866L674.301 33.0341ZM677.71 45V48H680.725L680.71 44.9851L677.71 45ZM662.564 44.7608C662.329 41.8152 661.175 39.2473 658.941 37.38L655.093 41.9837C655.905 42.6618 656.455 43.6393 656.583 45.2392L662.564 44.7608ZM658.958 37.3943C656.684 35.4651 653.566 34.7727 650.165 34.7727V40.7727C652.9 40.7727 654.35 41.3531 655.076 41.9693L658.958 37.3943ZM650.165 34.7727C647.998 34.7727 645.998 35.0329 644.288 35.686L646.428 41.2913C647.218 40.9899 648.422 40.7727 650.165 40.7727V34.7727ZM644.316 35.6754C642.715 36.2683 641.255 37.1848 640.222 38.5747L645.039 42.1526C645.188 41.9515 645.546 41.6181 646.4 41.3019L644.316 35.6754ZM640.222 38.5747C639.248 39.8861 638.747 41.4015 638.711 43.0243L644.709 43.1576C644.719 42.7349 644.831 42.4321 645.039 42.1526L640.222 38.5747ZM638.715 42.929C638.644 44.2339 638.873 45.5217 639.47 46.7166L644.837 44.0334C644.752 43.8647 644.685 43.6297 644.706 43.2528L638.715 42.929ZM639.527 46.8242C640.158 47.9693 641.077 48.8909 642.128 49.6327L645.588 44.7309C645.094 44.3819 644.876 44.0989 644.78 43.9258L639.527 46.8242ZM642.177 49.6667C643.218 50.371 644.452 50.9501 645.811 51.4377L647.836 45.7896C646.787 45.4135 646.043 45.0381 645.539 44.697L642.177 49.6667ZM645.811 51.4377C647.184 51.9297 648.759 52.3504 650.515 52.7113L651.723 46.8341C650.161 46.5132 648.873 46.1612 647.836 45.7896L645.811 51.4377ZM650.491 52.7061L656.218 53.9334L657.475 48.0666L651.748 46.8393L650.491 52.7061ZM656.225 53.9349C659.914 54.7162 662.976 55.7276 665.452 56.9352L668.082 51.5421C665.058 50.0678 661.506 48.9202 657.468 48.0651L656.225 53.9349ZM665.452 56.9352C667.951 58.1537 669.895 59.5403 671.356 61.0577L675.679 56.8969C673.639 54.7779 671.083 53.0054 668.082 51.5421L665.452 56.9352ZM671.369 61.0712C672.836 62.5768 673.884 64.2393 674.55 66.0707L680.189 64.0202C679.218 61.3516 677.698 58.9687 675.665 56.8833L671.369 61.0712ZM674.559 66.0957C675.265 67.9846 675.645 70.0883 675.665 72.4347L681.665 72.3834C681.639 69.4117 681.155 66.6063 680.179 63.9952L674.559 66.0957ZM675.665 72.3942C675.645 76.476 674.633 79.7307 672.78 82.3245L677.663 85.8119C680.356 82.042 681.639 77.524 681.665 72.4239L675.665 72.3942ZM672.78 82.3245C670.897 84.9615 668.152 87.0549 664.376 88.5369L666.568 94.1222C671.246 92.286 675.001 89.5385 677.663 85.8119L672.78 82.3245ZM664.37 88.5389C660.606 90.0244 655.943 90.8182 650.301 90.8182V96.8182C656.477 96.8182 661.928 95.9529 666.573 94.1201L664.37 88.5389ZM650.301 90.8182C644.522 90.8182 639.617 89.9624 635.522 88.3367L633.308 93.9133C638.258 95.8785 643.944 96.8182 650.301 96.8182V90.8182ZM635.527 88.3386C631.541 86.7486 628.542 84.3543 626.406 81.1698L621.423 84.512C624.287 88.782 628.288 91.9105 633.303 93.9114L635.527 88.3386ZM626.418 81.1873C624.346 78.0511 623.186 73.8725 623.165 68.4429L617.165 68.4662C617.189 74.7184 618.529 80.1307 621.412 84.4945L626.418 81.1873ZM620.165 71.4545H638.165V65.4545H620.165V71.4545ZM635.169 68.6139C635.304 71.1592 635.953 73.4973 637.259 75.4869L642.275 72.1949C641.672 71.2755 641.252 70.0226 641.161 68.2952L635.169 68.6139ZM637.259 75.4869C638.561 77.4705 640.378 78.9367 642.595 79.8995L644.985 74.3959C643.747 73.8587 642.883 73.1204 642.275 72.1949L637.259 75.4869ZM642.608 79.9052C644.816 80.8516 647.317 81.2727 650.028 81.2727V75.2727C647.922 75.2727 646.263 74.9439 644.972 74.3903L642.608 79.9052ZM650.028 81.2727C652.275 81.2727 654.344 80.998 656.141 80.3394L654.075 74.7061C653.144 75.0474 651.827 75.2727 650.028 75.2727V81.2727ZM656.141 80.3394C657.878 79.7024 659.427 78.7339 660.559 77.3099L655.862 73.5764C655.585 73.9252 655.065 74.343 654.075 74.7061L656.141 80.3394ZM660.559 77.3099C661.674 75.9068 662.265 74.26 662.301 72.4691L656.302 72.3491C656.292 72.8309 656.156 73.2069 655.862 73.5765L660.559 77.3099ZM662.3 72.3453C662.263 70.598 661.665 68.9951 660.522 67.6613L655.967 71.566C656.187 71.8231 656.294 72.0838 656.302 72.4729L662.3 72.3453ZM660.581 67.7316C659.479 66.3639 657.874 65.3933 656.128 64.6638L653.815 70.1998C655.115 70.743 655.692 71.227 655.908 71.4956L660.581 67.7316ZM656.163 64.6786C654.391 63.9116 652.126 63.2487 649.444 62.6605L648.159 68.5213C650.659 69.0695 652.507 69.6339 653.78 70.185L656.163 64.6786ZM649.434 62.6583L642.479 61.1583L641.214 67.0235L648.169 68.5235L649.434 62.6583ZM642.483 61.1591C636.64 59.8918 632.281 57.8279 629.202 55.1217L625.241 59.6283C629.299 63.1949 634.69 65.6082 641.211 67.0227L642.483 61.1591ZM629.217 55.1352C626.413 52.636 624.918 49.2031 624.937 44.467L618.938 44.442C618.912 50.6151 620.94 55.7958 625.226 59.6148L629.217 55.1352ZM624.937 44.4392C624.918 40.5847 625.934 37.3407 627.919 34.5811L623.047 31.0779C620.259 34.9547 618.912 39.4607 618.938 44.4699L624.937 44.4392ZM627.916 34.5842C629.974 31.7311 632.854 29.4464 636.676 27.7702L634.267 22.2753C629.59 24.3263 625.81 27.2462 623.05 31.0749L627.916 34.5842ZM636.671 27.7725C640.502 26.1015 644.98 25.2273 650.165 25.2273V19.2273C644.304 19.2273 638.987 20.2167 634.272 22.2729L636.671 27.7725ZM650.165 25.2273C655.473 25.2273 659.902 26.1158 663.539 27.7838L666.04 22.3299C661.45 20.2251 656.13 19.2273 650.165 19.2273V25.2273ZM663.539 27.7838C667.193 29.459 669.899 31.7626 671.785 34.6673L676.818 31.4009C674.248 27.442 670.614 24.4273 666.04 22.3299L663.539 27.7838ZM671.797 34.6866C673.689 37.5533 674.69 40.9579 674.71 45.0149L680.71 44.9851C680.685 39.9058 679.413 35.3331 676.805 31.3816L671.797 34.6866ZM677.71 42H659.574V48H677.71V42ZM707.966 23.1818L710.964 23.2925L711.079 20.1818H707.966V23.1818ZM706.193 71.1818V74.1818H709.084L709.191 71.2925L706.193 71.1818ZM690.648 71.1818L687.65 71.2925L687.756 74.1818H690.648V71.1818ZM688.875 23.1818V20.1818H685.762L685.877 23.2925L688.875 23.1818ZM691.636 91.3295L689.515 93.4509L689.528 93.4638L689.541 93.4766L691.636 91.3295ZM688.875 84.5455L691.875 84.5711L691.875 84.5451L691.875 84.5191L688.875 84.5455ZM691.636 77.8977L689.541 75.7507L689.535 75.757L689.528 75.7634L691.636 77.8977ZM705.034 77.8977L702.952 80.0573L702.958 80.0634L702.964 80.0695L705.034 77.8977ZM707.966 84.5455L710.966 84.5839L710.966 84.5515L710.966 84.5191L707.966 84.5455ZM706.568 89.3864L704.024 87.7964L704.017 87.8073L706.568 89.3864ZM703.091 92.8295L704.61 95.4164L704.625 95.4075L704.64 95.3984L703.091 92.8295ZM704.968 23.0711L703.195 71.0711L709.191 71.2925L710.964 23.2925L704.968 23.0711ZM706.193 68.1818H690.648V74.1818H706.193V68.1818ZM693.646 71.0711L691.873 23.0711L685.877 23.2925L687.65 71.2925L693.646 71.0711ZM688.875 26.1818H707.966V20.1818H688.875V26.1818ZM698.42 91.0909C696.567 91.0909 695.058 90.4764 693.732 89.1825L689.541 93.4766C691.988 95.8645 695.001 97.0909 698.42 97.0909V91.0909ZM693.758 89.2082C692.469 87.9192 691.859 86.4338 691.875 84.5711L685.875 84.5198C685.846 87.9753 687.077 91.0126 689.515 93.4509L693.758 89.2082ZM691.875 84.5191C691.859 82.7494 692.451 81.31 693.745 80.032L689.528 75.7634C687.095 78.1673 685.845 81.1597 685.875 84.5718L691.875 84.5191ZM693.732 80.0448C695.058 78.7508 696.567 78.1364 698.42 78.1364V72.1364C695.001 72.1364 691.988 73.3628 689.541 75.7507L693.732 80.0448ZM698.42 78.1364C700.093 78.1364 701.564 78.7193 702.952 80.0573L707.116 75.7382C704.686 73.3943 701.748 72.1364 698.42 72.1364V78.1364ZM702.964 80.0695C704.329 81.3694 704.951 82.8193 704.966 84.5718L710.966 84.5191C710.936 81.0898 709.603 78.1079 707.104 75.7259L702.964 80.0695ZM704.966 84.507C704.95 85.7499 704.632 86.8237 704.024 87.7964L709.112 90.9764C710.322 89.04 710.936 86.8864 710.966 84.5839L704.966 84.507ZM704.017 87.8073C703.38 88.8374 702.563 89.6447 701.541 90.2607L704.64 95.3984C706.483 94.2871 707.984 92.799 709.119 90.9654L704.017 87.8073ZM701.572 90.2427C700.607 90.8094 699.575 91.0909 698.42 91.0909V97.0909C700.629 97.0909 702.712 96.5315 704.61 95.4164L701.572 90.2427ZM742.091 23.1818L745.089 23.2925L745.204 20.1818H742.091V23.1818ZM740.318 71.1818V74.1818H743.209L743.316 71.2925L740.318 71.1818ZM724.773 71.1818L721.775 71.2925L721.881 74.1818H724.773V71.1818ZM723 23.1818V20.1818H719.887L720.002 23.2925L723 23.1818ZM725.761 91.3295L723.64 93.4509L723.653 93.4638L723.666 93.4766L725.761 91.3295ZM723 84.5455L726 84.5711L726 84.5451L726 84.5191L723 84.5455ZM725.761 77.8977L723.666 75.7507L723.66 75.757L723.653 75.7634L725.761 77.8977ZM739.159 77.8977L737.077 80.0573L737.083 80.0634L737.089 80.0695L739.159 77.8977ZM742.091 84.5455L745.091 84.5839L745.091 84.5515L745.091 84.5191L742.091 84.5455ZM740.693 89.3864L738.149 87.7964L738.142 87.8073L740.693 89.3864ZM737.216 92.8295L738.735 95.4164L738.75 95.4075L738.765 95.3984L737.216 92.8295ZM739.093 23.0711L737.32 71.0711L743.316 71.2925L745.089 23.2925L739.093 23.0711ZM740.318 68.1818H724.773V74.1818H740.318V68.1818ZM727.771 71.0711L725.998 23.0711L720.002 23.2925L721.775 71.2925L727.771 71.0711ZM723 26.1818H742.091V20.1818H723V26.1818ZM732.545 91.0909C730.692 91.0909 729.183 90.4764 727.857 89.1825L723.666 93.4766C726.113 95.8645 729.126 97.0909 732.545 97.0909V91.0909ZM727.883 89.2082C726.594 87.9192 725.984 86.4338 726 84.5711L720 84.5198C719.971 87.9753 721.202 91.0126 723.64 93.4509L727.883 89.2082ZM726 84.5191C725.984 82.7494 726.576 81.31 727.87 80.032L723.653 75.7634C721.22 78.1673 719.97 81.1597 720 84.5718L726 84.5191ZM727.857 80.0448C729.183 78.7508 730.692 78.1364 732.545 78.1364V72.1364C729.126 72.1364 726.113 73.3628 723.666 75.7507L727.857 80.0448ZM732.545 78.1364C734.218 78.1364 735.689 78.7193 737.077 80.0573L741.241 75.7382C738.811 73.3943 735.873 72.1364 732.545 72.1364V78.1364ZM737.089 80.0695C738.454 81.3694 739.076 82.8193 739.091 84.5718L745.091 84.5191C745.061 81.0898 743.728 78.1079 741.229 75.7259L737.089 80.0695ZM739.091 84.507C739.075 85.7499 738.757 86.8237 738.149 87.7964L743.237 90.9764C744.447 89.04 745.061 86.8864 745.091 84.5839L739.091 84.507ZM738.142 87.8073C737.505 88.8374 736.688 89.6447 735.666 90.2607L738.765 95.3984C740.608 94.2871 742.109 92.799 743.244 90.9654L738.142 87.8073ZM735.697 90.2427C734.732 90.8094 733.7 91.0909 732.545 91.0909V97.0909C734.754 97.0909 736.837 96.5315 738.735 95.4164L735.697 90.2427Z" fill="#FF8F12" mask="url(#path-1-outside-1_1_55)"/>
</svg>
